<svg width="40" height="40" viewBox="0 0 48 48" fill="none" xmlns="http://www.w3.org/2000/svg">
<g clip-path="url(#clip0_1279_426)">
<path d="M25.8506 13.168C21.1516 18.2102 17.2621 22.3813 17.2118 22.4392L17.1213 22.5425L17.1993 22.5324C17.2445 22.5248 18.3834 22.3537 19.731 22.1498C21.0787 21.9459 22.1874 21.7822 22.1899 21.7847C22.195 21.7898 20.7443 23.9446 18.9667 26.5727C16.4928 30.2253 15.7435 31.353 15.7762 31.3581C15.8014 31.3606 16.9076 31.2297 18.2326 31.0635C19.5601 30.8974 20.6487 30.764 20.6512 30.7665C20.6563 30.769 18.8033 33.6941 16.5355 37.2662C14.2677 40.8382 12.3997 43.7835 12.3871 43.8112C12.372 43.8389 12.4851 43.7357 12.636 43.5846C13.1539 43.0686 29.1568 26.5953 29.1492 26.5853C29.1442 26.5827 28.0128 26.6809 26.6325 26.8068C25.2522 26.9326 24.1158 27.0308 24.1057 27.0283C24.0932 27.0233 25.8506 24.7678 28.0078 22.0163C30.165 19.2624 31.9249 17.0044 31.9173 16.9993C31.9098 16.9918 30.532 17.3644 28.8525 17.8275C27.1756 18.2907 25.7978 18.6658 25.7928 18.6608C25.7877 18.6557 32.4906 7.25234 34.2983 4.19381C34.3611 4.08809 34.4089 3.99998 34.4039 3.99998C34.4014 3.99998 30.5521 8.12584 25.8506 13.168Z" fill="#193107"/>
<path d="M22.5088 8.31968C21.7369 8.38009 21.0757 8.4682 20.4346 8.59658C15.733 9.53302 11.6902 12.657 9.56069 16.9943C8.73603 18.6708 8.26336 20.3348 8.04714 22.3134C7.98429 22.8999 7.98429 24.7023 8.04714 25.309C8.24576 27.1869 8.6782 28.798 9.41738 30.4015C10.4381 32.6117 12.0673 34.6255 14.0485 36.1158C14.3729 36.36 14.7525 36.6243 14.7802 36.6243C14.7902 36.6243 14.8505 36.5286 14.9109 36.4128C14.9737 36.2995 15.1548 35.9949 15.3132 35.7407C15.469 35.4864 15.6702 35.1466 15.7582 34.988C15.8462 34.8294 15.9643 34.618 16.0222 34.5223C16.1378 34.3234 16.1956 34.1825 16.168 34.1573C16.1554 34.1472 16.0297 34.0516 15.8839 33.9408C15.4439 33.6111 15.0391 33.2611 14.5966 32.8257C13.5231 31.7759 12.7361 30.696 12.0749 29.3694C11.5218 28.2593 11.1522 27.129 10.9435 25.9081C10.7524 24.7854 10.7172 23.5242 10.8429 22.3763C11.2502 18.6885 13.254 15.3858 16.3113 13.3518C17.6262 12.4783 18.9613 11.9018 20.4723 11.5544C21.39 11.3455 22.0386 11.2725 23.1725 11.2574C24.1254 11.2423 24.5201 11.2624 25.0406 11.348L25.3096 11.3908L26.4661 10.1573C27.2204 9.34926 27.6101 8.91628 27.59 8.90369C27.4617 8.83069 26.6949 8.61672 26.2675 8.53365C25.4353 8.37002 24.9048 8.32723 23.6779 8.31716C23.1046 8.31464 22.5792 8.31464 22.5088 8.31968Z" fill="#193107"/>
<path d="M31.3683 12.1233C30.9636 12.7728 30.6191 13.3241 30.6015 13.3543C30.5688 13.4021 30.5789 13.4147 30.7373 13.5305C31.9441 14.4115 33.1258 15.6626 33.9429 16.9137C35.0215 18.5726 35.6701 20.3851 35.909 22.414C35.9743 22.9553 35.9869 24.2517 35.9366 24.8558C35.728 27.2573 34.8983 29.4449 33.4702 31.3505C31.4966 33.9861 28.5399 35.7331 25.2488 36.2064C24.1752 36.3624 22.5184 36.365 22.013 36.2114L21.8974 36.1787L20.6604 37.4172L19.4209 38.6582L19.6447 38.7086C21.5454 39.1466 23.8107 39.2372 25.7265 38.9528C29.1031 38.4543 32.2684 36.7979 34.6544 34.2831C36.8493 31.9723 38.2949 29.0245 38.7475 25.9383C38.8833 25.0069 38.9009 24.7526 38.9009 23.6349C38.8984 22.5173 38.8782 22.2252 38.7475 21.3694C38.3503 18.7866 37.2314 16.2542 35.562 14.1573C34.8228 13.2309 33.9052 12.3121 32.9799 11.572C32.6808 11.3329 32.1528 10.9477 32.1251 10.9477C32.1125 10.9477 31.7731 11.4764 31.3683 12.1233Z" fill="#193107"/>
</g>
<defs>
<clipPath id="clip0_1279_426">
<rect width="31" height="40" fill="white" transform="translate(8 4)"/>
</clipPath>
</defs>
</svg>
